<svg xmlns="http://www.w3.org/2000/svg" width="16" height="16" viewBox="0 0 4.233 4.233"><g fill="#0c0c0d" fill-opacity=".8"><path d="M.793-.001V0A.794.794 0 0 0 0 .794h.53A.265.265 0 0 1 .793.529H3.96a.265.265 0 0 0 .009 0 .265.265 0 0 0 .264-.264A.265.265 0 0 0 3.97 0v-.001H.793zM0 .794V3.44a.794.794 0 0 0 .793.793H3.97a.265.265 0 0 0 .264-.264.265.265 0 0 0-.264-.265H.794a.265.265 0 0 1-.265-.263.265.265 0 0 1 0-.001V.794H0z"/><path d="M2.896 1.056a.265.265 0 0 0-.163.463l.363.334H1.332a.265.265 0 0 0-.01 0 .265.265 0 0 0-.264.264.265.265 0 0 0 .264.264h1.773l-.362.335a.265.265 0 1 0 .357.389l.863-.794a.265.265 0 0 0 .004-.003.265.265 0 0 0 .004-.005.265.265 0 0 0 .014-.014.265.265 0 0 0-.054-.398l-.831-.763a.265.265 0 0 0-.194-.072z" style="line-height:normal;font-variant-ligatures:normal;font-variant-position:normal;font-variant-caps:normal;font-variant-numeric:normal;font-variant-alternates:normal;font-feature-settings:normal;text-indent:0;text-align:start;text-decoration-line:none;text-decoration-style:solid;text-decoration-color:#000;text-transform:none;text-orientation:mixed;white-space:normal;shape-padding:0;isolation:auto;mix-blend-mode:normal;solid-color:#000;solid-opacity:1" color="#000" font-weight="400" font-family="sans-serif" overflow="visible"/></g></svg>